<svg width="77.777771" height="80.000000" viewBox="0 0 77.7778 80" fill="none" xmlns="http://www.w3.org/2000/svg" xmlns:xlink="http://www.w3.org/1999/xlink">
	<desc>
			Created with Pixso.
	</desc>
	<defs>
		<clipPath id="clip51_120">
			<rect width="23.611115" height="24.285717" transform="translate(27.083313 27.857178)" fill="white" fill-opacity="0"/>
		</clipPath>
		<clipPath id="clip51_116">
			<rect width="77.777779" height="80.000000" fill="white" fill-opacity="0"/>
		</clipPath>
	</defs>
	<rect width="77.777779" height="80.000000" fill="#FFFFFF" fill-opacity="0"/>
	<g clip-path="url(#clip51_116)">
		<path d="M38.8889 0C33.7819 0 28.725 1.03461 24.0068 3.0448C19.2885 5.05499 15.0015 8.0014 11.3903 11.7157C4.09723 19.2172 0 29.3914 0 40C0 50.6086 4.09723 60.7828 11.3903 68.2843C15.0015 71.9987 19.2885 74.9449 24.0068 76.9552C28.725 78.9653 33.7819 80 38.8889 80C49.2029 80 59.0944 75.7858 66.3875 68.2843C73.6805 60.7828 77.7778 50.6086 77.7778 40C77.7778 34.7471 76.7719 29.5457 74.8175 24.6927C72.8632 19.8397 69.9987 15.4301 66.3875 11.7157C62.7763 8.0014 58.4893 5.05499 53.771 3.0448C49.0528 1.03461 43.9958 0 38.8889 0ZM39.2361 18.5714C27.5384 18.5714 18.0555 28.3252 18.0555 40.3572C18.0555 52.389 27.5384 62.1429 39.2361 62.1429C50.9338 62.1429 60.4167 52.389 60.4167 40.3572C60.4167 28.3252 50.9338 18.5714 39.2361 18.5714Z" clip-rule="evenodd" fill="#3F2AFF" fill-opacity="1.000000" fill-rule="evenodd"/>
		<rect width="23.611115" height="24.285717" transform="translate(27.083313 27.857178)" fill="#FF5C00" fill-opacity="0"/>
		<g clip-path="url(#clip51_120)">
			<path d="M38.8881 43.1122L38.8881 33.8508C38.6329 33.8751 38.3806 33.9161 38.1238 33.9282L30.7723 33.9282C30.3651 33.9282 30.0345 34.2682 30.0345 34.6871L30.0345 35.446L27.8211 35.446C27.4138 35.446 27.0833 35.7859 27.0833 36.2049L27.0833 40.7582C27.0833 41.1771 27.4138 41.517 27.8211 41.517L30.0345 41.517L30.0345 42.2759C30.0345 42.6948 30.3651 43.0348 30.7723 43.0348L31.2194 43.0348L34.1854 51.167C34.3669 51.6542 34.7727 52.0078 35.2714 52.111C35.3703 52.1323 35.4692 52.1429 35.5665 52.1429C35.9606 52.1429 36.3353 51.982 36.6039 51.6937L38.3761 49.886C38.8291 49.42 38.9368 48.6931 38.6476 48.1299L36.1716 43.0348L38.1312 43.0348C38.3849 43.0469 38.6358 43.088 38.8881 43.1122Z" fill="#212133" fill-opacity="1.000000" fill-rule="nonzero"/>
			<path d="M50.5728 28.2245C50.5581 28.1987 50.5448 28.1774 50.5256 28.1531C50.4445 28.0469 50.3427 27.9604 50.2172 27.9103C50.2128 27.9088 50.2098 27.9027 50.2054 27.9012C50.1907 27.8967 50.1774 27.9042 50.1626 27.8997C50.0962 27.8799 50.0298 27.8572 49.9561 27.8572C49.9059 27.8572 49.8616 27.8769 49.8129 27.8875C49.7849 27.8936 49.7583 27.8951 49.7303 27.9042C49.6034 27.9467 49.4942 28.0196 49.4071 28.1198C49.4012 28.1258 49.3923 28.1273 49.3865 28.1334C47.086 31.0065 43.8781 32.928 40.3646 33.6323L40.3646 43.3323C43.8781 44.0365 47.086 45.9565 49.3865 48.8296C49.3923 48.8372 49.4027 48.8403 49.4101 48.8494C49.4617 48.9086 49.5251 48.9556 49.593 48.9951C49.6152 49.0087 49.6329 49.0284 49.655 49.0391C49.748 49.0801 49.8483 49.1058 49.9561 49.1058C50.0402 49.1058 50.1228 49.0907 50.2054 49.0618C50.2098 49.0603 50.2128 49.0543 50.2172 49.0527C50.3427 49.0026 50.4445 48.9177 50.5256 48.8099C50.5433 48.7856 50.5566 48.7643 50.5728 48.7385C50.6437 48.6217 50.6938 48.4927 50.6938 48.347L50.6938 28.6161C50.6938 28.4703 50.6437 28.3414 50.5728 28.2245Z" fill="#212133" fill-opacity="1.000000" fill-rule="nonzero"/>
		</g>
	</g>
</svg>
