<svg width="18.000000" height="18.000000" viewBox="0 0 18 18" fill="none" xmlns="http://www.w3.org/2000/svg" xmlns:xlink="http://www.w3.org/1999/xlink">
	<desc>
			Created with Pixso.
	</desc>
	<defs/>
	<path d="M12.402 18L12.402 11.0339L14.735 11.0339L15.084 8.32593L12.402 8.32593L12.402 6.5979C12.402 5.81396 12.62 5.27905 13.744 5.27905L15.178 5.27905L15.178 2.85693C14.4838 2.78345 13.7861 2.74756 13.088 2.75C11.021 2.75 9.60596 4.01196 9.60596 6.33008L9.60596 8.32593L7.26794 8.32593L7.26794 11.0339L9.60596 11.0339L9.60596 18L1 18C0.734741 18 0.480469 17.8945 0.292847 17.707C0.105347 17.5195 0 17.2651 0 17L0 1C0 0.734863 0.105347 0.480469 0.292847 0.292969C0.480469 0.105469 0.734741 0 1 0L17 0C17.2653 0 17.5195 0.105469 17.7072 0.292969C17.8947 0.480469 18 0.734863 18 1L18 17C18 17.2651 17.8947 17.5195 17.7072 17.707C17.5195 17.8945 17.2653 18 17 18L12.402 18Z" fill="#FFFFFF" fill-opacity="1.000000" fill-rule="nonzero"/>
</svg>
