<svg width="80.000000" height="80.000000" viewBox="0 0 80 80" fill="none" xmlns="http://www.w3.org/2000/svg" xmlns:xlink="http://www.w3.org/1999/xlink">
	<desc>
			Created with Pixso.
	</desc>
	<defs>
		<clipPath id="clip51_130">
			<rect width="31.428570" height="31.428572" transform="translate(25.000000 24.285706)" fill="white" fill-opacity="0"/>
		</clipPath>
		<clipPath id="clip51_129">
			<rect width="80.000000" height="80.000000" fill="white" fill-opacity="0"/>
		</clipPath>
	</defs>
	<rect width="80.000000" height="80.000000" fill="#FFFFFF" fill-opacity="0"/>
	<g clip-path="url(#clip51_129)">
		<rect width="31.428570" height="31.428572" transform="translate(25.000000 24.285706)" fill="#212133" fill-opacity="0"/>
		<g clip-path="url(#clip51_130)">
			<path d="M37.9097 43.3674C37.9097 43.6773 38.1609 43.9286 38.4709 43.9286L39.1892 43.9286C39.0673 43.5678 39.0232 43.1852 39.0602 42.8062L38.4709 42.8062C38.1609 42.8062 37.9097 43.0574 37.9097 43.3674Z" fill="#212133" fill-opacity="1.000000" fill-rule="nonzero"/>
			<path d="M42.3527 24.3259C41.9158 24.2327 41.4598 24.317 41.0851 24.5601C40.7104 24.8033 40.4476 25.1854 40.3547 25.6223L38.7384 35.9263C38.6658 36.3185 38.3296 36.6069 37.9309 36.6191C37.5323 36.6313 37.1792 36.3638 37.0828 35.9769L35.1017 26.8625C35.0133 26.2532 34.5994 25.7407 34.0222 25.5261C33.4451 25.3115 32.7969 25.4291 32.3318 25.8326C31.8668 26.2363 31.6592 26.8615 31.7904 27.4631L33.6705 37.7559C33.8156 38.5397 33.806 39.3442 33.6425 40.1243C34.2164 39.5579 34.8297 39.0328 35.4777 38.5529C36.1519 38.0386 36.9757 37.7588 37.8236 37.7559L41.5726 37.7559L43.6492 26.3294C43.7439 25.8917 43.6605 25.4343 43.4172 25.0583C43.1738 24.6823 42.7908 24.4187 42.3527 24.3259Z" fill="#212133" fill-opacity="1.000000" fill-rule="nonzero"/>
			<path d="M43.1222 45.1183C42.8292 45.3304 42.4974 45.483 42.1458 45.5673C42.2218 45.6896 42.2894 45.8171 42.3478 45.9489C42.4232 46.1218 42.4067 46.321 42.304 46.4792C42.2012 46.6375 42.0256 46.7333 41.837 46.7346C41.6152 46.7332 41.415 46.6012 41.3263 46.3978C40.9681 45.5771 40.1565 45.0478 39.261 45.0509L38.4697 45.0509C37.5398 45.0509 36.786 44.2971 36.786 43.3672C36.786 42.4374 37.5398 41.6836 38.4697 41.6836L40.1533 41.6836C41.3932 41.6836 42.3983 40.6785 42.3983 39.4387L42.3983 38.8774L37.8242 38.8774C37.2172 38.8774 36.6263 39.0743 36.1406 39.4387C33.9406 41.0775 31.735 43.5188 31.735 46.3024C31.7334 47.5568 32.126 48.7799 32.8574 49.7989L35.6636 53.6713C36.0898 54.2628 36.2891 54.9879 36.2247 55.7142L45.7656 55.7142C45.7656 54.1877 45.614 54.5917 48.0835 50.3882C48.7329 49.0753 49.0909 47.6375 49.1329 46.1733L49.1329 43.5805L47.8253 45.6627C47.3097 46.5515 46.316 47.0499 45.2954 46.9317C44.2747 46.8136 43.4211 46.1014 43.1222 45.1183Z" fill="#212133" fill-opacity="1.000000" fill-rule="nonzero"/>
			<path d="M40.1801 42.806C40.0773 43.2767 40.2211 43.7674 40.5618 44.108C40.9025 44.4487 41.3931 44.5926 41.8638 44.4897C42.6776 44.3101 42.9862 43.6759 43.4071 42.9575C45.6969 39.2983 45.6128 39.4443 45.6521 39.332C46.1674 38.6081 45.9991 37.6036 45.276 37.0871C44.9119 36.8835 44.4814 36.8342 44.0807 36.9502C43.6801 37.0662 43.3424 37.3378 43.1434 37.7045L42.9918 37.9458C43.314 38.1471 43.5126 38.4976 43.5194 38.8774L43.5194 39.4387C43.5194 41.2875 42.0289 42.7906 40.1801 42.806Z" fill="#212133" fill-opacity="1.000000" fill-rule="nonzero"/>
			<path d="M49.0221 38.8774C48.2933 38.4622 47.366 38.7128 46.9456 39.4386C46.6201 39.9662 47.17 39.0345 44.3696 43.558C44.1487 43.9065 44.0759 44.3287 44.1675 44.731C44.3148 45.3223 44.8127 45.7606 45.418 45.8317C46.0231 45.9028 46.6091 45.5919 46.8895 45.0508L49.4711 40.9483C49.9189 40.2524 49.7179 39.3253 49.0221 38.8774Z" fill="#212133" fill-opacity="1.000000" fill-rule="nonzero"/>
		</g>
		<path d="M40 0C34.7471 0 29.5457 1.03461 24.6926 3.0448C19.8396 5.05499 15.4301 8.0014 11.7157 11.7157C4.21423 19.2172 0 29.3914 0 40C0 50.6086 4.21423 60.7828 11.7157 68.2843C15.4301 71.9987 19.8396 74.9449 24.6926 76.9552C29.5457 78.9653 34.7471 80 40 80C50.6086 80 60.7828 75.7858 68.2843 68.2843C75.7858 60.7828 80 50.6086 80 40C80 34.7471 78.9653 29.5457 76.9552 24.6927C74.9449 19.8397 71.9987 15.4301 68.2843 11.7157C64.5699 8.0014 60.1604 5.05499 55.3074 3.0448C50.4543 1.03461 45.2529 0 40 0ZM40.3572 18.5714C28.3252 18.5714 18.5714 28.3252 18.5714 40.3572C18.5714 52.389 28.3252 62.1429 40.3572 62.1429C52.389 62.1429 62.1428 52.389 62.1428 40.3572C62.1428 28.3252 52.389 18.5714 40.3572 18.5714Z" clip-rule="evenodd" fill="#3F2AFF" fill-opacity="1.000000" fill-rule="evenodd"/>
	</g>
</svg>
