<svg width="24.000000" height="24.000000" viewBox="0 0 24 24" fill="none" xmlns="http://www.w3.org/2000/svg" xmlns:xlink="http://www.w3.org/1999/xlink">
	<defs>
		<clipPath id="clip51_89">
			<rect width="24.000000" height="24.000000" fill="white" fill-opacity="0"/>
		</clipPath>
	</defs>
	<rect width="24.000000" height="24.000000" fill="#FFFFFF" fill-opacity="0"/>
	<g clip-path="url(#clip51_89)">
		<path d="M11.99 2C6.46997 2 2 6.47998 2 12C2 17.52 6.46997 22 11.99 22C17.52 22 22 17.52 22 12C22 6.47998 17.52 2 11.99 2ZM12 20C7.57996 20 4 16.42 4 12C4 7.57996 7.57996 4 12 4C16.42 4 20 7.57996 20 12C20 16.42 16.42 20 12 20Z" fill="#FFFFFF" fill-opacity="1.000000" fill-rule="nonzero"/>
		<path d="M12.5 7L11 7L11 13L16.25 16.15L17 14.92L12.5 12.25L12.5 7Z" fill="#FFFFFF" fill-opacity="1.000000" fill-rule="nonzero"/>
	</g>
</svg>
