<svg width="94.000000" height="21.000000" viewBox="0 0 94 21" fill="none" xmlns="http://www.w3.org/2000/svg" xmlns:xlink="http://www.w3.org/1999/xlink">
	<desc>
			Created with Pixso.
	</desc>
	<defs>
		<clipPath id="clip51_168">
			<rect width="94.000000" height="21.000000" fill="white" fill-opacity="0"/>
		</clipPath>
	</defs>
	<rect width="94.000000" height="21.000000" fill="#FFFFFF" fill-opacity="0"/>
	<g clip-path="url(#clip51_168)">
		<path d="M13.123 14.968C13.123 18.266 10.506 20.658 6.34802 20.658C5.15332 20.6242 3.97729 20.3539 2.8877 19.8628C1.7981 19.3717 0.81665 18.6696 0 17.797L1.39001 16.255C2.69202 17.498 4.22302 18.706 6.31995 18.706C8.65002 18.706 11.161 17.396 11.161 15.042C11.161 13.087 9.61304 11.812 6.35901 10.807C2.651 9.67 0.77002 8.128 0.77002 5.227C0.767944 2.356 3.18799 0 6.64001 0C9.21704 0 10.83 1.102 12.399 2.51L11.032 4.033C9.65601 2.81 8.34497 1.981 6.73596 1.981C4.73999 1.98 2.77002 3.272 2.77002 5.13C2.77002 6.814 3.73401 7.887 7.14001 8.933C10.26 9.897 13.123 11.391 13.123 14.966L13.123 14.968ZM29.948 1.898C29.948 2.802 30.678 3.536 31.579 3.536C32.012 3.536 32.427 3.363 32.733 3.056C32.9607 2.82686 33.1157 2.53556 33.1785 2.21867C33.2412 1.90178 33.209 1.5734 33.0859 1.27475C32.9628 0.976093 32.7542 0.720464 32.4862 0.539936C32.2183 0.359407 31.9031 0.262022 31.58 0.26C30.679 0.26 29.949 0.993 29.949 1.898L29.948 1.898ZM50.328 19.676C50.328 19.676 51.538 20.663 55.572 20.663L55.5699 20.662C59.552 20.662 62.7841 17.74 62.7841 13.747C62.7841 9.755 59.554 6.844 55.572 6.844C54.442 6.814 53.322 7.044 52.2939 7.517L52.2939 0.599L50.328 0.599L50.328 19.676ZM65.087 13.767C65.087 17.761 68.313 21 72.2939 21C76.275 21 79.5031 17.762 79.504 13.768C79.504 9.774 76.276 6.536 72.295 6.536C68.3149 6.536 65.087 9.773 65.087 13.767ZM91.433 20.337L94 20.337L88.324 13.553L93.6169 7.191L91.0649 7.191L87.045 12.023L83.004 7.191L80.437 7.191L85.7679 13.561L80.132 20.337L82.683 20.337L87.047 15.092L91.433 20.337ZM72.313 8.49C71.2737 8.49068 70.2579 8.79991 69.3944 9.3785C68.531 9.95708 67.8588 10.779 67.463 11.74C67.0654 12.7023 66.9613 13.7606 67.1636 14.7819C67.366 15.8032 67.8657 16.7419 68.6 17.48C69.3326 18.2162 70.2677 18.7179 71.2863 18.9213C72.3048 19.1246 73.3608 19.0204 74.3199 18.622C75.2803 18.2216 76.1005 17.5458 76.6771 16.6798C77.2537 15.8138 77.5609 14.7964 77.5601 13.756C77.5601 10.848 75.21 8.49 72.312 8.49L72.313 8.49ZM55.583 8.823C54.4076 8.83931 53.2646 9.21055 52.304 9.888L52.304 18.033C53.3223 18.5296 54.451 18.7562 55.582 18.691C58.478 18.691 60.827 16.661 60.827 13.757C60.827 10.853 58.476 8.822 55.58 8.822L55.582 8.822L55.583 8.823ZM45.748 0.6L43.781 0.6L43.781 20.334L45.748 20.334L45.748 0.6ZM37.231 0.6L39.198 0.6L39.198 20.334L37.231 20.334L37.231 0.6ZM18.209 13.44L18.203 13.434L18.209 13.428L18.209 13.44ZM18.209 20.334L18.209 13.44L25.082 20.337L27.863 20.337L20.983 13.434L27.212 7.181L24.4301 7.181L18.208 13.428L18.208 0.6L16.241 0.6L16.241 20.334L18.208 20.334L18.209 20.334ZM30.666 20.337L32.632 20.337L32.632 7.181L30.666 7.181L30.666 20.337Z" fill="#FFFFFF" fill-opacity="1.000000" fill-rule="evenodd"/>
	</g>
</svg>
